<svg viewBox="0 0 16 16" fill="none" xmlns="http://www.w3.org/2000/svg" id="Apple-Shortcuts--Streamline-Iconoir" height="16" width="16">
  <desc>
    Apple Shortcuts Streamline Icon: https://streamlinehq.com
  </desc>
  <g clip-path="url(#clip0_3786_327)">
    <path fill-rule="evenodd" clip-rule="evenodd" d="M2.1659333333333333 7.546733333333333c-1.13208 -0.7204666666666666 -1.13208 -2.3730333333333333 0.00000666666666666667 -3.093446666666667l4.133986666666667 -2.6307266666666664c1.0372733333333333 -0.6600933333333333 2.36294 -0.6600933333333333 3.4002066666666666 0.00000666666666666667l4.1339999999999995 2.6307199999999997c1.1320666666666666 0.72042 1.1320666666666666 2.37298 0 3.093446666666667l-4.1339999999999995 2.630733333333333c-1.0372666666666666 0.6600666666666666 -2.3629333333333333 0.6600666666666666 -3.4002066666666666 0L2.1659333333333333 7.546733333333333Z" fill="#000000" stroke-width="0.6667"></path>
    <path fill-rule="evenodd" clip-rule="evenodd" d="m13.107199999999999 7.990666666666667 -3.4070666666666662 -2.16812c-1.0372666666666666 -0.6600933333333333 -2.3628666666666662 -0.6600999999999999 -3.4001866666666665 0L2.8928866666666666 7.990666666666667l3.943913333333333 2.5098c0.7097333333333333 0.4516 1.6167333333333334 0.4516 2.3264666666666667 0l3.943933333333333 -2.5098Zm0.9072 0.5926666666666667c-0.05653333333333333 0.04606666666666666 -0.1166 0.08953333333333333 -0.18026666666666663 0.13006666666666666l-4.1339999999999995 2.630733333333333c-1.0372666666666666 0.6600666666666666 -2.3629333333333333 0.6600666666666666 -3.4002066666666666 0L2.1659333333333333 8.7134c-0.06366 -0.04053333333333333 -0.12373999999999999 -0.08399999999999999 -0.18023999999999998 -0.13006666666666666 -0.94824 0.7732666666666665 -0.8881533333333334 2.2834666666666665 0.18026 2.9633333333333334l4.133993333333333 2.630733333333333c1.0373199999999998 0.6601333333333332 2.36292 0.6601333333333332 3.4001866666666665 0l4.1339999999999995 -2.630733333333333c1.0684666666666667 -0.6798666666666666 1.1285333333333334 -2.1900666666666666 0.18026666666666663 -2.9633333333333334Z" fill="#000000" stroke-width="0.6667"></path>
  </g>
  <defs>
    <clipPath id="clip0_3786_327">
      <path fill="#ffffff" d="M0 0h16v16H0Z" stroke-width="0.6667"></path>
    </clipPath>
  </defs>
</svg>