<svg width="590" height="688" viewBox="0 0 590 688" fill="none" xmlns="http://www.w3.org/2000/svg">
<path d="M343.712 0.726074C428.864 0.726074 506.774 31.7319 566.77 83.0684C578.24 92.8834 583.975 97.791 587.149 105.829C589.682 112.247 590.15 121.35 588.287 127.994C585.954 136.315 579.902 142.677 567.797 155.402L540.286 184.324C523.385 202.091 514.935 210.975 507.616 213.789C499.391 216.95 495.992 217.193 487.4 215.234C479.756 213.49 466.272 202.859 439.304 181.596C410.721 159.06 375.864 145.826 338.244 145.826C241.213 145.826 162.554 233.862 162.554 342.458C162.554 451.056 241.213 539.092 338.244 539.092C374.997 539.092 409.114 526.46 437.319 504.864C463.108 485.117 476.003 475.244 483.452 473.568C491.778 471.695 495.173 471.922 503.175 474.887C510.335 477.54 518.542 485.775 534.956 502.243L565.605 532.993C578.276 545.705 584.611 552.061 587.111 560.502C589.105 567.232 588.711 576.52 586.153 583.057C582.946 591.255 577.059 596.235 565.284 606.195C505.491 656.776 428.164 687.273 343.712 687.273C154.128 687.273 0.438843 533.584 0.438843 344C0.439171 154.415 154.128 0.726267 343.712 0.726074Z" fill="url(#paint0_linear_30_1087)"/>
<defs>
<linearGradient id="paint0_linear_30_1087" x1="669.007" y1="-99.4223" x2="-40.0284" y2="703.063" gradientUnits="userSpaceOnUse">
<stop stop-color="#E24CC9"/>
<stop offset="0.5" stop-color="#BD43DD"/>
<stop offset="0.75" stop-color="#B52CD3"/>
<stop offset="1" stop-color="#5628CD"/>
</linearGradient>
</defs>
</svg>
